<svg width="400" height="600" viewBox="0 0 400 600" xmlns="http://www.w3.org/2000/svg">
  <defs>
    <!-- Gradients for realistic shading -->
    <linearGradient id="skinGradient" x1="0%" y1="0%" x2="100%" y2="100%">
      <stop offset="0%" stop-color="#D4A574"/>
      <stop offset="50%" stop-color="#C19A6B"/>
      <stop offset="100%" stop-color="#A0845C"/>
    </linearGradient>
    
    <linearGradient id="jerseyGradient" x1="0%" y1="0%" x2="100%" y2="100%">
      <stop offset="0%" stop-color="#00A651"/>
      <stop offset="50%" stop-color="#008B43"/>
      <stop offset="100%" stop-color="#006B33"/>
    </linearGradient>
    
    <linearGradient id="helmetGradient" x1="0%" y1="0%" x2="100%" y2="100%">
      <stop offset="0%" stop-color="#00A651"/>
      <stop offset="50%" stop-color="#008B43"/>
      <stop offset="100%" stop-color="#006B33"/>
    </linearGradient>
    
    <linearGradient id="batGradient" x1="0%" y1="0%" x2="100%" y2="100%">
      <stop offset="0%" stop-color="#D2B48C"/>
      <stop offset="50%" stop-color="#CD853F"/>
      <stop offset="100%" stop-color="#A0522D"/>
    </linearGradient>
    
    <radialGradient id="ballGradient" cx="30%" cy="30%" r="70%">
      <stop offset="0%" stop-color="#FF6B6B"/>
      <stop offset="50%" stop-color="#E74C3C"/>
      <stop offset="100%" stop-color="#C0392B"/>
    </radialGradient>
    
    <!-- Shadow filter -->
    <filter id="shadow" x="-50%" y="-50%" width="200%" height="200%">
      <feDropShadow dx="3" dy="3" stdDeviation="2" flood-opacity="0.3"/>
    </filter>
    
    <!-- Animation definitions -->
    <animateTransform id="batSwing" attributeName="transform" type="rotate"
                      values="-10 200 350; 45 200 350; -10 200 350"
                      dur="3s" repeatCount="indefinite"/>
  </defs>
  
  <!-- Background field -->
  <rect width="400" height="600" fill="#2E8B57" opacity="0.1"/>
  
  <!-- Cricket pitch lines -->
  <rect x="180" y="500" width="40" height="100" fill="#8B4513" opacity="0.3"/>
  <line x1="190" y1="500" x2="190" y2="600" stroke="white" stroke-width="2" opacity="0.5"/>
  <line x1="210" y1="500" x2="210" y2="600" stroke="white" stroke-width="2" opacity="0.5"/>
  
  <!-- Player shadow -->
  <ellipse cx="200" cy="580" rx="60" ry="15" fill="black" opacity="0.2"/>
  
  <!-- Legs and pads -->
  <g filter="url(#shadow)">
    <!-- Left leg -->
    <rect x="180" y="450" width="15" height="120" fill="url(#skinGradient)" rx="7"/>
    <!-- Right leg -->
    <rect x="205" y="450" width="15" height="120" fill="url(#skinGradient)" rx="7"/>
    
    <!-- Cricket pads -->
    <rect x="175" y="420" width="25" height="100" fill="white" stroke="#ccc" stroke-width="2" rx="5"/>
    <rect x="200" y="420" width="25" height="100" fill="white" stroke="#ccc" stroke-width="2" rx="5"/>
    
    <!-- Pad straps -->
    <rect x="175" y="440" width="25" height="3" fill="#333"/>
    <rect x="175" y="470" width="25" height="3" fill="#333"/>
    <rect x="200" y="440" width="25" height="3" fill="#333"/>
    <rect x="200" y="470" width="25" height="3" fill="#333"/>
  </g>
  
  <!-- Torso -->
  <g filter="url(#shadow)">
    <!-- Body -->
    <rect x="170" y="280" width="60" height="140" fill="url(#jerseyGradient)" rx="30"/>
    
    <!-- Pakistan jersey details -->
    <rect x="175" y="290" width="50" height="8" fill="white"/>
    <text x="200" y="305" text-anchor="middle" font-family="Arial, sans-serif" font-size="12" font-weight="bold" fill="white">PAKISTAN</text>
    
    <!-- Jersey number 56 -->
    <circle cx="200" cy="340" r="20" fill="white" opacity="0.9"/>
    <text x="200" y="348" text-anchor="middle" font-family="Arial, sans-serif" font-size="18" font-weight="bold" fill="#00A651">56</text>
    
    <!-- Jersey collar -->
    <path d="M 185 280 Q 200 275 215 280 L 215 290 L 185 290 Z" fill="#006B33"/>
  </g>
  
  <!-- Arms -->
  <g filter="url(#shadow)">
    <!-- Left arm -->
    <rect x="140" y="300" width="35" height="80" fill="url(#jerseyGradient)" rx="17" transform="rotate(-20 157 340)"/>
    <!-- Right arm (batting) -->
    <rect x="225" y="300" width="35" height="80" fill="url(#jerseyGradient)" rx="17" transform="rotate(30 242 340)"/>
    
    <!-- Gloves -->
    <circle cx="150" cy="380" r="12" fill="white" stroke="#333" stroke-width="2"/>
    <circle cx="250" cy="360" r="12" fill="white" stroke="#333" stroke-width="2"/>
  </g>
  
  <!-- Cricket bat -->
  <g transform="rotate(-15 200 350)">
    <animateTransform attributeName="transform" type="rotate"
                      values="-15 200 350; 25 200 350; -15 200 350"
                      dur="4s" repeatCount="indefinite"/>
    
    <!-- Bat handle -->
    <rect x="245" y="320" width="8" height="60" fill="#8B4513" rx="4"/>
    <!-- Bat blade -->
    <rect x="240" y="380" width="18" height="80" fill="url(#batGradient)" rx="9"/>
    <!-- Bat grip -->
    <rect x="245" y="320" width="8" height="20" fill="#333"/>
    <!-- Bat sweet spot -->
    <rect x="242" y="420" width="14" height="20" fill="#A0522D" opacity="0.7"/>
  </g>
  
  <!-- Head and helmet -->
  <g filter="url(#shadow)">
    <!-- Neck -->
    <rect x="190" y="260" width="20" height="25" fill="url(#skinGradient)" rx="10"/>
    
    <!-- Head -->
    <circle cx="200" cy="240" r="35" fill="url(#skinGradient)"/>
    
    <!-- Facial features -->
    <!-- Eyes -->
    <ellipse cx="190" cy="235" rx="3" ry="2" fill="#2C3E50"/>
    <ellipse cx="210" cy="235" rx="3" ry="2" fill="#2C3E50"/>
    
    <!-- Nose -->
    <path d="M 200 240 L 198 248 L 202 248 Z" fill="#C19A6B"/>
    
    <!-- Mouth -->
    <path d="M 195 252 Q 200 255 205 252" stroke="#A0845C" stroke-width="2" fill="none"/>
    
    <!-- Beard (Babar's signature look) -->
    <path d="M 175 250 Q 200 270 225 250 Q 220 265 200 268 Q 180 265 175 250" fill="#2C3E50" opacity="0.8"/>
    
    <!-- Cricket helmet -->
    <path d="M 170 220 Q 200 200 230 220 Q 230 240 225 250 Q 200 255 175 250 Q 170 240 170 220" fill="url(#helmetGradient)"/>
    
    <!-- Helmet grill -->
    <g stroke="#333" stroke-width="1.5" opacity="0.7">
      <line x1="180" y1="235" x2="220" y2="235"/>
      <line x1="180" y1="240" x2="220" y2="240"/>
      <line x1="180" y1="245" x2="220" y2="245"/>
      <line x1="185" y1="230" x2="185" y2="250"/>
      <line x1="195" y1="230" x2="195" y2="250"/>
      <line x1="205" y1="230" x2="205" y2="250"/>
      <line x1="215" y1="230" x2="215" y2="250"/>
    </g>
    
    <!-- Pakistan flag on helmet -->
    <rect x="205" y="215" width="15" height="10" fill="#00A651"/>
    <circle cx="210" cy="220" r="2" fill="white"/>
    <path d="M 212 218 L 215 220 L 212 222 Z" fill="white"/>
  </g>
  
  <!-- Cricket ball in motion -->
  <g>
    <animateTransform attributeName="transform" type="translate"
                      values="320 200; 50 400; 320 200"
                      dur="3s" repeatCount="indefinite"/>
    
    <circle cx="0" cy="0" r="8" fill="url(#ballGradient)"/>
    <!-- Ball seam -->
    <path d="M -6 -3 Q 0 -8 6 -3 Q 0 2 -6 -3" stroke="white" stroke-width="1" fill="none"/>
    <path d="M -6 3 Q 0 8 6 3 Q 0 -2 -6 3" stroke="white" stroke-width="1" fill="none"/>
    
    <!-- Motion lines -->
    <g opacity="0.6">
      <line x1="-15" y1="-2" x2="-25" y2="-2" stroke="#fff" stroke-width="2"/>
      <line x1="-15" y1="2" x2="-25" y2="2" stroke="#fff" stroke-width="2"/>
      <line x1="-20" y1="0" x2="-30" y2="0" stroke="#fff" stroke-width="2"/>
    </g>
  </g>
  
  <!-- Batting stance lines (showing power and technique) -->
  <g opacity="0.3">
    <animateTransform attributeName="transform" type="scale"
                      values="1; 1.1; 1"
                      dur="4s" repeatCount="indefinite"/>
    
    <path d="M 200 350 L 280 320" stroke="#FFD700" stroke-width="3" opacity="0.7"/>
    <path d="M 200 350 L 290 340" stroke="#FFD700" stroke-width="2" opacity="0.5"/>
    <path d="M 200 350 L 285 360" stroke="#FFD700" stroke-width="2" opacity="0.5"/>
  </g>
  
  <!-- Wickets in background -->
  <g opacity="0.4">
    <rect x="50" y="480" width="3" height="40" fill="#8B4513"/>
    <rect x="57" y="480" width="3" height="40" fill="#8B4513"/>
    <rect x="64" y="480" width="3" height="40" fill="#8B4513"/>
    <rect x="50" y="478" width="17" height="3" fill="#8B4513"/>
    <rect x="50" y="485" width="17" height="3" fill="#8B4513"/>
  </g>
  
  <!-- Captain's armband -->
  <rect x="225" y="310" width="35" height="8" fill="#FFD700" transform="rotate(30 242 314)"/>
  <text x="242" y="318" text-anchor="middle" font-family="Arial, sans-serif" font-size="6" font-weight="bold" fill="#000" transform="rotate(30 242 318)">C</text>
  
  <!-- Signature batting style indicator -->
  <text x="200" y="580" text-anchor="middle" font-family="Arial, sans-serif" font-size="14" font-weight="bold" fill="#00A651" opacity="0.8">BABAR AZAM</text>
  <text x="200" y="595" text-anchor="middle" font-family="Arial, sans-serif" font-size="10" fill="#666">Pakistan Cricket Captain</text>
</svg>