<svg xmlns="http://www.w3.org/2000/svg" viewBox="0 0 1920 1080" class="w-full h-full">
  <defs>
    <linearGradient id="skyGradient" x1="0%" y1="0%" x2="0%" y2="100%">
      <stop offset="0%" style="stop-color:#1e3a8a;stop-opacity:1" />
      <stop offset="50%" style="stop-color:#3730a3;stop-opacity:1" />
      <stop offset="100%" style="stop-color:#1e293b;stop-opacity:1" />
    </linearGradient>
    <linearGradient id="fieldGradient" x1="0%" y1="0%" x2="0%" y2="100%">
      <stop offset="0%" style="stop-color:#16a34a;stop-opacity:0.8" />
      <stop offset="100%" style="stop-color:#15803d;stop-opacity:0.9" />
    </linearGradient>
    <radialGradient id="stadiumLights" cx="50%" cy="30%" r="60%">
      <stop offset="0%" style="stop-color:#fbbf24;stop-opacity:0.3" />
      <stop offset="100%" style="stop-color:#fbbf24;stop-opacity:0" />
    </radialGradient>
  </defs>
  
  <!-- Sky Background -->
  <rect width="1920" height="1080" fill="url(#skyGradient)"/>
  
  <!-- Stadium Lights Effect -->
  <ellipse cx="960" cy="300" rx="800" ry="400" fill="url(#stadiumLights)"/>
  
  <!-- Stadium Structure -->
  <g opacity="0.6">
    <!-- Left Stand -->
    <polygon points="0,400 300,350 300,800 0,850" fill="#374151" opacity="0.8"/>
    <polygon points="0,400 300,350 280,330 0,380" fill="#4b5563"/>
    
    <!-- Right Stand -->
    <polygon points="1620,350 1920,400 1920,850 1620,800" fill="#374151" opacity="0.8"/>
    <polygon points="1620,350 1640,330 1920,380 1920,400" fill="#4b5563"/>
    
    <!-- Stadium Roof -->
    <ellipse cx="960" cy="200" rx="600" ry="100" fill="#1f2937" opacity="0.7"/>
    <ellipse cx="960" cy="190" rx="580" ry="90" fill="#374151" opacity="0.5"/>
  </g>
  
  <!-- Cricket Field -->
  <ellipse cx="960" cy="700" rx="500" ry="200" fill="url(#fieldGradient)"/>
  
  <!-- Cricket Pitch -->
  <rect x="930" y="650" width="60" height="100" fill="#d4a574" opacity="0.8" rx="5"/>
  
  <!-- Wickets -->
  <g fill="#ffffff" opacity="0.9">
    <rect x="945" y="655" width="2" height="15"/>
    <rect x="948" y="655" width="2" height="15"/>
    <rect x="951" y="655" width="2" height="15"/>
    
    <rect x="945" y="735" width="2" height="15"/>
    <rect x="948" y="735" width="2" height="15"/>
    <rect x="951" y="735" width="2" height="15"/>
  </g>
  
  <!-- Field Markings -->
  <ellipse cx="960" cy="700" rx="150" ry="60" fill="none" stroke="#ffffff" stroke-width="2" opacity="0.3"/>
  <ellipse cx="960" cy="700" rx="300" ry="120" fill="none" stroke="#ffffff" stroke-width="1" opacity="0.2"/>
  
  <!-- Stadium Lights -->
  <g fill="#fbbf24" opacity="0.8">
    <circle cx="200" cy="250" r="8"/>
    <circle cx="400" cy="200" r="6"/>
    <circle cx="600" cy="180" r="8"/>
    <circle cx="800" cy="160" r="6"/>
    <circle cx="1120" cy="160" r="6"/>
    <circle cx="1320" cy="180" r="8"/>
    <circle cx="1520" cy="200" r="6"/>
    <circle cx="1720" cy="250" r="8"/>
  </g>
  
  <!-- Light Beams -->
  <g opacity="0.1">
    <polygon points="200,250 150,600 250,600" fill="#fbbf24"/>
    <polygon points="600,180 550,600 650,600" fill="#fbbf24"/>
    <polygon points="1320,180 1270,600 1370,600" fill="#fbbf24"/>
    <polygon points="1720,250 1670,600 1770,600" fill="#fbbf24"/>
  </g>
  
  <!-- Crowd Silhouettes -->
  <g fill="#1f2937" opacity="0.6">
    <rect x="50" y="450" width="200" height="300" rx="10"/>
    <rect x="1670" y="450" width="200" height="300" rx="10"/>
  </g>
  
  <!-- Atmospheric Particles -->
  <g fill="#ffffff" opacity="0.1">
    <circle cx="300" cy="400" r="1"/>
    <circle cx="500" cy="350" r="1.5"/>
    <circle cx="700" cy="300" r="1"/>
    <circle cx="900" cy="280" r="1.5"/>
    <circle cx="1100" cy="300" r="1"/>
    <circle cx="1300" cy="350" r="1.5"/>
    <circle cx="1500" cy="400" r="1"/>
    <circle cx="1700" cy="450" r="1"/>
  </g>
</svg>